PathFileType	4	(X/Y/Z)	D:\TRACE\v60_Jaco2_6-2-23\JustArmDRS_Motion2_3-platform.trc
DataRate	CameraRate	NumFrames	NumMarkers	Units	OrigDataRate	OrigDataStartFrame	OrigNumFrames
100.00	100.00	      42	5	mm	100.00	4356	      6969
Frame#	Time	Left_Front			Right_Front			Left_Aft			Right_Aft			Post			
		X1	Y1	Z1	X2	Y2	Z2	X3	Y3	Z3	X4	Y4	Z4	X5	Y5	Z5	

4356	43.550	-810.42188	33.72349	-632.42688	759.45782	34.72637	-637.82227	-718.44855	-9.43521	501.88477	723.64429	-10.98484	511.63867	-23.72823	1344.06665	-905.27997	
4357	43.560	-811.49164	32.51605	-632.67706	758.52747	33.41549	-637.99188	-719.69720	-8.36313	501.42633	722.70514	-9.99816	511.41110	-24.92367	1342.21094	-909.44275	
4358	43.570	-812.91394	31.07129	-633.09503	757.22357	31.82026	-638.44128	-720.83545	-7.52597	501.16364	721.15814	-9.00594	511.37601	-25.99382	1340.20374	-913.90912	
4359	43.580	-813.96906	29.82446	-633.64075	756.14465	30.58323	-638.94159	-721.99542	-6.49056	500.93280	720.08057	-8.01231	510.96735	-26.89662	1338.16382	-917.72546	
4360	43.590	-814.97748	28.22602	-633.78711	755.13342	29.41830	-639.14752	-723.13934	-5.53669	500.75327	719.05206	-7.10749	510.54474	-28.04714	1336.31299	-921.67963	
4361	43.600	-815.92487	26.76089	-634.21277	753.96826	27.83664	-639.32904	-724.19592	-4.58970	500.49774	717.96863	-6.11320	510.23322	-29.13337	1334.44580	-924.89648	
4362	43.610	-817.25177	25.86116	-634.59991	752.72992	26.46294	-640.01733	-725.35205	-3.68091	500.22256	717.15503	-5.06132	509.92706	-29.96379	1332.33240	-928.13147	
4363	43.620	-818.46753	24.18854	-634.79895	751.74951	25.21793	-640.38586	-726.48907	-2.66532	499.97696	715.67004	-4.06209	509.87720	-31.47553	1330.41345	-931.25995	
4364	43.630	-819.44556	22.68711	-635.40332	750.46844	23.61523	-640.64075	-727.48218	-1.84011	499.59790	714.77643	-3.06305	509.44644	-33.03721	1328.52734	-934.02417	
4365	43.640	-820.53217	21.43964	-635.70679	749.26093	22.33789	-641.07324	-728.80408	-0.74305	499.32907	713.41437	-2.02730	509.09061	-33.76170	1326.42114	-936.50677	
4366	43.650	-821.47357	20.00127	-635.95636	748.40631	20.95997	-641.27094	-729.79291	0.22121	499.03961	712.51892	-1.12779	508.68137	-34.68962	1324.34436	-939.05511	
4367	43.660	-822.82257	18.75803	-636.10938	747.13910	19.61720	-641.65265	-730.81927	1.11318	498.52362	711.37939	-0.09825	508.36383	-35.77095	1322.39197	-941.34662	
4368	43.670	-823.81476	17.23790	-636.83398	746.33502	18.18429	-642.13153	-732.01721	2.15525	498.23175	710.52319	0.89259	508.15167	-37.15485	1320.27441	-943.04260	
4369	43.680	-824.80994	15.76781	-636.79785	745.06818	16.73218	-642.30756	-732.74139	3.00128	497.99258	709.51849	1.96944	507.71027	-38.25875	1318.26660	-945.05212	
4370	43.690	-825.95264	14.33464	-637.36261	743.86621	15.38538	-642.66418	-734.17285	4.15345	497.56900	708.16064	2.94303	507.47986	-39.37999	1316.40417	-947.53699	
4371	43.700	-827.15875	13.44209	-638.07550	743.02209	14.05744	-643.09479	-735.12091	5.00623	497.38000	707.43066	3.93220	507.03702	-40.26337	1314.16589	-950.49030	
4372	43.710	-828.19427	11.72843	-638.04022	741.91370	12.68725	-643.50592	-736.07147	6.20018	497.06708	706.07043	5.04890	506.84900	-41.34557	1312.15308	-953.80646	
4373	43.720	-829.03491	10.15503	-638.46576	740.91901	11.06308	-643.64777	-737.16388	7.00129	496.78214	705.05438	6.03013	506.64929	-42.58604	1309.94727	-957.35773	
4374	43.730	-830.09509	8.79545	-638.93402	739.79498	9.68586	-644.25262	-738.18408	8.04255	496.35040	704.23932	7.19174	506.12939	-43.74696	1307.92261	-961.50464	
4375	43.740	-830.98669	7.10193	-638.90265	738.89423	8.27107	-644.33551	-739.20569	8.98419	496.06219	703.11255	8.07908	505.79309	-44.54444	1305.63953	-965.72833	
4376	43.750	-832.30579	6.10982	-639.34186	737.82855	6.75675	-644.70770	-740.35883	10.07428	495.74780	702.24365	9.08805	505.52692	-45.56366	1303.46033	-969.77948	
4377	43.760	-833.14844	4.68486	-639.79517	736.85461	5.52852	-645.11853	-741.00391	10.88220	495.31122	701.14734	10.11382	505.22211	-46.79968	1301.40442	-973.38629	
4378	43.770	-834.07159	2.97759	-639.91058	736.14917	3.92465	-645.60724	-742.18402	12.17579	495.01599	700.24243	11.17575	504.91315	-47.30352	1299.35718	-977.06744	
4379	43.780	-835.01819	1.47586	-640.36877	735.03918	2.61693	-645.64001	-743.05786	12.87370	494.63632	699.05847	12.17491	504.56711	-48.30600	1297.12695	-980.46893	
4380	43.790	-835.86304	0.23173	-640.80139	733.90295	1.35274	-646.12732	-744.08704	14.00210	494.41605	697.94012	13.17930	504.19461	-49.45034	1295.10229	-983.63470	
4381	43.800	-837.03284	-1.15963	-640.91473	733.17627	-0.12461	-646.34668	-744.94434	14.81368	494.15747	697.34583	14.14608	503.83673	-50.38034	1292.93982	-987.08929	
4382	43.810	-837.87115	-2.56640	-641.32861	732.20813	-1.50493	-646.66687	-746.04346	16.00148	493.85013	696.47571	15.11338	503.58411	-50.98538	1290.97156	-989.98010	
4383	43.820	-838.85455	-3.80369	-641.44305	731.45905	-2.84188	-646.96283	-746.63605	16.71840	493.49783	695.56989	16.11794	503.21017	-51.90927	1288.80359	-992.67682	
4384	43.830	-839.23541	-5.45294	-641.70825	730.45740	-4.42588	-647.32056	-747.51819	17.76658	493.19592	694.89209	17.17131	502.77710	-53.37804	1286.74146	-995.53369	
4385	43.840	-840.32898	-6.69099	-642.23395	729.88458	-5.40456	-647.28125	-748.56488	18.71299	492.82657	694.08441	17.95397	502.43948	-54.09813	1284.71240	-997.73987	
4386	43.850	-841.08099	-8.10200	-642.45697	728.90332	-7.00581	-647.76746	-749.16577	19.56213	492.37537	693.08643	18.97525	502.10339	-55.01747	1282.60657	-1000.05176	
4387	43.860	-841.89233	-9.57805	-642.77618	727.97894	-8.45542	-648.20245	-749.99976	20.52962	492.06781	692.46155	20.04210	501.80417	-55.41171	1280.38843	-1002.41498	
4388	43.870	-842.82214	-10.52051	-642.98370	727.47363	-9.49743	-648.33850	-750.90881	21.50625	491.70261	691.63940	21.03610	501.51422	-56.27277	1278.47559	-1004.45392	
4389	43.880	-843.60669	-12.07634	-643.34875	726.62671	-11.02589	-648.66272	-751.75238	22.42024	491.49521	690.80017	21.97184	501.09842	-57.18306	1276.37781	-1006.52148	
4390	43.890	-843.63440	-14.18676	-643.11688	725.80267	-12.31842	-648.96808	-752.23328	23.10523	491.11420	690.06488	22.74211	500.82153	-58.10779	1274.55493	-1008.57489	
4391	43.900	-844.44098	-15.23036	-643.97290	725.15472	-13.49630	-649.16400	-753.12848	24.15980	490.90674	689.51746	23.63102	500.43634	-58.66549	1272.46252	-1010.80652	
4392	43.910	-845.26202	-16.30612	-644.32019	724.39313	-14.81218	-649.58392	-753.81177	24.88685	490.53116	688.81445	24.65461	500.20041	-59.18211	1270.75488	-1013.35284	
4393	43.920	-845.70276	-17.53386	-644.32758	724.12787	-16.01533	-649.43188	-754.31989	25.89724	490.23007	688.20203	25.60844	499.84122	-59.72357	1268.63184	-1016.15228	
4394	43.930	-846.60577	-18.69868	-644.93658	723.20227	-17.45675	-650.02856	-754.83990	26.81954	489.80325	687.62988	26.42877	499.40958	-60.31344	1266.76172	-1019.52368	
4395	43.940	-847.23590	-19.89207	-644.91016	722.55603	-18.44469	-650.04529	-755.58368	27.63589	489.41083	687.19720	27.28034	499.12109	-60.88204	1264.91882	-1022.93378	
4396	43.950	-847.79120	-21.17210	-645.11578	722.11255	-20.01788	-650.50714	-756.01007	28.42287	489.02097	686.43781	28.05615	498.75974	-61.31088	1262.83716	-1026.02612	
4397	43.960	-848.46417	-22.44722	-645.32635	721.63000	-20.98419	-650.74268	-756.92358	29.42037	488.68536	685.92877	29.12348	498.43982	-62.11658	1260.81616	-1029.22961	
